<svg width="20" height="20" viewBox="0 0 30 30" fill="none" xmlns="http://www.w3.org/2000/svg">
<path fill-rule="evenodd" clip-rule="evenodd" d="M4.47314 1.47314C3.65955 0.659554 2.34045 0.659552 1.52686 1.47314C0.713275 2.28673 0.713275 3.60583 1.52686 4.41942L25.0971 27.9897C25.9107 28.8033 27.2298 28.8032 28.0434 27.9896C28.857 27.1761 28.857 25.857 28.0434 25.0434L4.47314 1.47314Z" fill="currentcolor"/>
<path fill-rule="evenodd" clip-rule="evenodd" d="M1.47314 25.5269C0.659554 26.3404 0.659552 27.6596 1.47314 28.4731C2.28673 29.2867 3.60583 29.2867 4.41942 28.4731L27.9897 4.90289C28.8033 4.08929 28.8032 2.77022 27.9896 1.95664C27.1761 1.14305 25.857 1.14302 25.0434 1.95661L1.47314 25.5269Z" fill="currentcolor"/>
</svg>
