<svg width="95" class="text" height="95" viewBox="0 0 145 149" fill="none" xmlns="http://www.w3.org/2000/svg">
<path d="M89.7421 131.049L74.8797 133.131L76.9622 147.994L91.8246 145.911L89.7421 131.049Z" fill="#141414"/>
<path d="M58.7708 138.219C58.856 138.689 58.9944 139.119 59.186 139.509C59.3726 139.902 59.6133 140.249 59.9081 140.548C60.1985 140.847 60.5418 141.091 60.9378 141.282C61.3339 141.473 61.7792 141.602 62.2739 141.67C63.0849 141.781 63.8512 141.673 64.5727 141.346C65.2943 141.018 65.9072 140.474 66.4114 139.712C66.9156 138.95 67.2492 137.977 67.4121 136.792C67.5751 135.606 67.5143 134.578 67.2297 133.708C66.9452 132.838 66.4931 132.148 65.8733 131.636C65.2535 131.124 64.5203 130.809 63.6736 130.693C62.8893 130.585 62.1757 130.657 61.5326 130.91C60.8845 131.165 60.351 131.578 59.9323 132.147C59.5085 132.72 59.239 133.425 59.1238 134.263L58.6305 134.086L62.7481 134.652L62.5459 136.123L57.3322 135.406L57.5343 133.936C57.6893 132.808 58.0646 131.861 58.6605 131.094C59.2518 130.326 60.0001 129.77 60.9054 129.427C61.8057 129.088 62.7995 128.993 63.8868 129.142C65.0989 129.309 66.1247 129.74 66.9643 130.437C67.7994 131.133 68.4009 132.042 68.7688 133.164C69.1323 134.286 69.2148 135.568 69.0164 137.012C68.8675 138.095 68.5889 139.049 68.1804 139.873C67.7668 140.702 67.2507 141.385 66.6321 141.922C66.0134 142.459 65.3163 142.84 64.5408 143.064C63.7653 143.289 62.9386 143.341 62.0607 143.221C61.3388 143.122 60.6809 142.92 60.0871 142.616C59.4881 142.315 58.9708 141.933 58.5352 141.469C58.0944 141.009 57.7468 140.482 57.4924 139.889C57.2374 139.3 57.0931 138.665 57.0596 137.984L58.7708 138.219Z" fill="black"/>
<path d="M48.8871 124.796C49.803 125.194 50.5052 125.739 50.9939 126.432C51.4766 127.127 51.7388 127.918 51.7805 128.804C51.8163 129.693 51.6228 130.624 51.1999 131.597C50.777 132.571 50.2268 133.352 49.5494 133.941C48.8661 134.532 48.1142 134.896 47.2937 135.035C46.4673 135.177 45.6251 135.061 44.7669 134.688C44.2718 134.473 43.8188 134.178 43.4078 133.804C42.9967 133.429 42.6738 132.97 42.439 132.426C42.2025 131.887 42.0983 131.263 42.1266 130.555C42.1548 129.846 42.3616 129.048 42.7469 128.161L43.0157 127.542L50.343 130.725L49.7946 131.987L43.9526 129.45C43.7196 129.986 43.619 130.511 43.6508 131.025C43.6784 131.538 43.8353 132.001 44.1215 132.414C44.4036 132.826 44.8087 133.147 45.3368 133.376C45.9185 133.629 46.4846 133.703 47.035 133.599C47.5794 133.497 48.0646 133.266 48.4904 132.907C48.9163 132.548 49.243 132.106 49.4706 131.582L49.8361 130.74C50.148 130.022 50.2885 129.36 50.2578 128.753C50.2212 128.149 50.0365 127.62 49.7039 127.167C49.3694 126.717 48.9072 126.364 48.3172 126.108C47.9335 125.941 47.5636 125.845 47.2076 125.817C46.8457 125.793 46.5038 125.84 46.1819 125.96C45.8582 126.085 45.5628 126.285 45.2956 126.561L44.0567 125.552C44.4131 125.138 44.8455 124.826 45.3539 124.615C45.8605 124.408 46.4155 124.316 47.019 124.338C47.6208 124.364 48.2435 124.517 48.8871 124.796Z" fill="black"/>
<path d="M26.6965 123.074L27.5481 122.027L31.7143 125.417L30.8627 126.463L26.6965 123.074ZM28.0815 127.402L26.8463 126.397L33.0801 118.734C33.3639 118.385 33.5262 118.082 33.567 117.826C33.6014 117.57 33.5625 117.347 33.4502 117.157C33.3317 116.967 33.1817 116.799 33.0002 116.651C32.8641 116.541 32.7468 116.457 32.6482 116.4C32.5468 116.346 32.4657 116.303 32.4048 116.271L33.0563 114.957C33.1656 114.994 33.308 115.058 33.4836 115.148C33.662 115.236 33.8664 115.373 34.0967 115.56C34.4456 115.844 34.7265 116.197 34.9394 116.62C35.1488 117.04 35.2385 117.492 35.2086 117.978C35.1751 118.461 34.9682 118.937 34.5878 119.404L28.0815 127.402Z" fill="black"/>
<path d="M18.5131 94.6588L19.1005 96.3118L4.38105 96.1583L3.80263 94.5308L15.1238 85.1225L15.7113 86.7754L6.13362 94.5616L6.16977 94.6633L18.5131 94.6588ZM13.2101 95.8561L10.8421 89.1933L12.2408 88.6963L14.6087 95.359L13.2101 95.8561Z" fill="black"/>
<path d="M10.7906 58.8531L11.164 57.0563L13.4588 55.9619L14.0696 55.6754L17.5223 54.0498L17.1489 55.8467L14.8596 56.9146L14.2807 57.1802L10.7906 58.8531ZM9.60466 51.8257C11.0316 52.1222 12.2112 52.6361 13.1434 53.3673C14.0757 54.0986 14.7304 54.972 15.1074 55.9875C15.4844 57.0031 15.553 58.0878 15.3132 59.2416C15.0735 60.3955 14.5784 61.3631 13.828 62.1444C13.0776 62.9256 12.1291 63.4659 10.9827 63.7652C9.8363 64.0645 8.54964 64.0659 7.12273 63.7694C5.69583 63.4729 4.51624 62.959 3.58396 62.2277C2.65169 61.4965 1.99704 60.6231 1.62002 59.6075C1.243 58.5919 1.17437 57.5072 1.41415 56.3534C1.65392 55.1995 2.14901 54.232 2.89942 53.4507C3.64983 52.6694 4.59825 52.1291 5.74467 51.8298C6.8911 51.5305 8.17776 51.5291 9.60466 51.8257ZM9.2752 53.4111C8.10373 53.1677 7.0743 53.1582 6.18692 53.3827C5.30045 53.6028 4.58113 54.0023 4.02896 54.5813C3.47771 55.1559 3.11697 55.8527 2.94675 56.6719C2.77653 57.491 2.82931 58.2761 3.1051 59.0271C3.3818 59.7738 3.8824 60.4268 4.60688 60.9862C5.33229 61.5413 6.28072 61.9405 7.45219 62.1839C8.62366 62.4274 9.65263 62.439 10.5391 62.219C11.4265 61.9945 12.1458 61.5949 12.6971 61.0204C13.2492 60.4414 13.6104 59.7423 13.7806 58.9232C13.9509 58.104 13.8976 57.3211 13.6209 56.5745C13.3451 55.8235 12.8445 55.1704 12.1191 54.6154C11.3947 54.056 10.4467 53.6545 9.2752 53.4111Z" fill="black"/>
<path d="M17.7758 40.3499L12.3363 37.5314L13.0688 36.1176L22.2706 40.8855L21.538 42.2993L19.9804 41.4922L19.9307 41.5881C20.2863 42.0459 20.5098 42.5873 20.6014 43.2122C20.689 43.8352 20.5527 44.4941 20.1927 45.189C19.8947 45.7641 19.504 46.2101 19.0206 46.5271C18.5332 46.8419 17.9677 46.9947 17.324 46.9854C16.6764 46.9741 15.9612 46.7656 15.1784 46.36L9.33147 43.3304L10.064 41.9166L15.8151 44.8965C16.4861 45.2442 17.1185 45.3338 17.7124 45.1653C18.3084 44.9928 18.7585 44.6131 19.0627 44.026C19.2448 43.6745 19.3402 43.2705 19.3487 42.8139C19.3594 42.3534 19.2432 41.9031 19.0001 41.463C18.759 41.0189 18.3509 40.6479 17.7758 40.3499Z" fill="black"/>
<path d="M29.7517 31.6168C29.1131 32.3006 28.3901 32.7486 27.5826 32.9608C26.7782 33.1696 25.9483 33.1455 25.093 32.8883C24.2407 32.6278 23.4234 32.1322 22.641 31.4015C21.852 30.6646 21.2969 29.8784 20.9756 29.0429C20.6573 28.204 20.5749 27.3762 20.7284 26.5594C20.885 25.7393 21.2826 24.9874 21.9212 24.3036C22.5598 23.6199 23.2813 23.1735 24.0857 22.9647C24.8931 22.7525 25.7247 22.7782 26.5802 23.0417C27.4388 23.302 28.2626 23.8006 29.0516 24.5374C29.834 25.2681 30.3827 26.0514 30.6976 26.8872C31.0157 27.7197 31.0964 28.5459 30.9399 29.366C30.7864 30.1828 30.3903 30.9331 29.7517 31.6168ZM28.7063 30.6405C29.1914 30.1211 29.4574 29.5694 29.5043 28.9854C29.5512 28.4014 29.4329 27.8262 29.1494 27.2599C28.8659 26.6936 28.471 26.174 27.9647 25.7012C27.4585 25.2284 26.9115 24.8683 26.3239 24.6211C25.7362 24.3738 25.151 24.292 24.5683 24.3755C23.9856 24.4591 23.4516 24.7606 22.9666 25.28C22.4815 25.7994 22.2171 26.3526 22.1735 26.9397C22.1299 27.5267 22.2515 28.105 22.5383 28.6744C22.8251 29.2438 23.2216 29.7649 23.7279 30.2377C24.2341 30.7106 24.7794 31.0691 25.3638 31.3132C25.9482 31.5574 26.5301 31.6362 27.1095 31.5496C27.689 31.4629 28.2212 31.1599 28.7063 30.6405Z" fill="black"/>
<path d="M38.9926 11.084L39.6938 12.237L35.1049 15.0275L34.4038 13.8745L38.9926 11.084ZM34.4511 10.9397L35.8117 10.1124L40.944 18.5522C41.1777 18.9365 41.4087 19.1909 41.6371 19.3153C41.8669 19.4335 42.09 19.4715 42.3066 19.4293C42.5246 19.381 42.7335 19.296 42.9334 19.1745C43.0833 19.0833 43.2016 19.0009 43.2883 18.9271C43.3727 18.8494 43.4402 18.7873 43.4909 18.7407L44.5108 19.7946C44.4396 19.8853 44.3319 19.9982 44.1876 20.1332C44.0458 20.2722 43.848 20.4188 43.5943 20.573C43.21 20.8067 42.7831 20.9531 42.3137 21.0122C41.8481 21.069 41.3914 21.0019 40.9436 20.811C40.4996 20.6176 40.121 20.2635 39.8079 19.7485L34.4511 10.9397Z" fill="black"/>
<path d="M56.1354 15.4358C55.503 15.613 54.8958 15.6547 54.3136 15.5609C53.7302 15.4628 53.2232 15.2288 52.7926 14.8589C52.3608 14.4848 52.0538 13.9728 51.8718 13.3232C51.7116 12.7514 51.6944 12.2564 51.8201 11.8381C51.9446 11.4155 52.1667 11.0497 52.4865 10.7405C52.8063 10.4314 53.1796 10.1633 53.6065 9.93622C54.0365 9.70363 54.4747 9.49209 54.9212 9.30159C55.5057 9.05373 55.9809 8.85752 56.3468 8.71295C56.7158 8.56285 56.973 8.41371 57.1184 8.26555C57.268 8.11617 57.3083 7.91804 57.2391 7.67116L57.2246 7.61918C57.0449 6.97815 56.73 6.5292 56.2796 6.27233C55.8336 6.01425 55.2576 5.98412 54.5516 6.18193C53.8196 6.38702 53.2906 6.70808 52.9646 7.1451C52.6386 7.58212 52.4421 8.00621 52.3751 8.41737L50.7742 8.30537C50.8642 7.62617 51.0784 7.05698 51.4169 6.59778C51.7584 6.13303 52.1681 5.76132 52.6459 5.48263C53.1269 5.1984 53.6185 4.9859 54.121 4.84512C54.4415 4.75532 54.8206 4.69115 55.2582 4.65261C55.699 4.60852 56.147 4.64881 56.6024 4.77348C57.0621 4.89694 57.488 5.15832 57.8802 5.55761C58.2723 5.95691 58.5794 6.55287 58.8015 7.3455L60.6437 13.9204L59.1104 14.35L58.7318 12.9987L58.6538 13.0205C58.6106 13.2662 58.5022 13.5465 58.3289 13.8613C58.1555 14.1762 57.8917 14.4766 57.5374 14.7627C57.1831 15.0489 56.7158 15.2732 56.1354 15.4358ZM55.9834 13.993C56.5898 13.8231 57.0675 13.5607 57.4165 13.206C57.7699 12.8501 57.9999 12.454 58.1066 12.0177C58.2176 11.5802 58.2148 11.1535 58.0983 10.7377L57.7051 9.33438C57.662 9.43054 57.5391 9.54206 57.3364 9.66892C57.1368 9.79024 56.9008 9.91477 56.6283 10.0425C56.3589 10.1647 56.0947 10.2807 55.8359 10.3906C55.5802 10.495 55.3731 10.581 55.2146 10.6488C54.8306 10.8124 54.4818 11.0013 54.1681 11.2153C53.8575 11.4238 53.6282 11.6725 53.4803 11.9616C53.3355 12.245 53.3177 12.5817 53.4269 12.9715C53.5762 13.5043 53.8861 13.8519 54.3567 14.0143C54.8304 14.1712 55.3727 14.1641 55.9834 13.993Z" fill="black"/>
<path d="M75.0288 2.63636V3.98579L69.6581 3.98579V2.63636L75.0288 2.63636ZM71.2234 0.153409L72.8158 0.153409V10.0312C72.8158 10.4811 72.881 10.8184 73.0114 11.0433C73.1464 11.2637 73.3173 11.4122 73.5242 11.4886C73.7356 11.5606 73.9583 11.5966 74.1922 11.5966C74.3676 11.5966 74.5115 11.5876 74.624 11.5696C74.7364 11.5471 74.8264 11.5291 74.8939 11.5156L75.2177 12.946C75.1098 12.9865 74.9591 13.027 74.7657 13.0675C74.5723 13.1125 74.3271 13.1349 74.0302 13.1349C73.5804 13.1349 73.1396 13.0382 72.7078 12.8448C72.2805 12.6514 71.9251 12.3568 71.6417 11.9609C71.3629 11.5651 71.2234 11.0658 71.2234 10.4631V0.153409Z" fill="black"/>
<path d="M87.6993 14.9298L90.4954 4.95045L92.0287 5.38006L89.2326 15.3594L87.6993 14.9298ZM91.741 3.50568C91.4422 3.42194 91.213 3.24795 91.0534 2.9837C90.8982 2.72066 90.8607 2.44621 90.9408 2.16034C91.0209 1.87448 91.1956 1.65949 91.4648 1.51538C91.7384 1.37249 92.0247 1.34291 92.3235 1.42665C92.6224 1.51039 92.8494 1.68377 93.0046 1.94681C93.1641 2.21106 93.2039 2.48612 93.1238 2.77198C93.0437 3.05785 92.8668 3.27223 92.5932 3.41512C92.3239 3.55923 92.0399 3.58941 91.741 3.50568Z" fill="black"/>
<path d="M102.668 21.5939C101.869 21.1077 101.283 20.491 100.911 19.7435C100.543 18.9985 100.398 18.181 100.476 17.2913C100.557 16.4038 100.876 15.5028 101.433 14.5881C101.994 13.6657 102.65 12.9622 103.403 12.4776C104.16 11.9953 104.953 11.7462 105.784 11.7303C106.619 11.7168 107.436 11.9531 108.236 12.4392C109.035 12.9253 109.619 13.5409 109.987 14.286C110.359 15.0334 110.503 15.8528 110.419 16.744C110.339 17.6376 110.018 18.5456 109.457 19.468C108.901 20.3827 108.246 21.0793 107.492 21.5577C106.741 22.0385 105.949 22.2857 105.114 22.2992C104.283 22.3151 103.468 22.08 102.668 21.5939ZM103.412 20.3717C104.019 20.741 104.613 20.8891 105.195 20.8162C105.776 20.7433 106.315 20.5105 106.812 20.1177C107.309 19.7249 107.737 19.2325 108.097 18.6407C108.457 18.0488 108.698 17.44 108.821 16.8144C108.943 16.1887 108.904 15.5991 108.704 15.0456C108.503 14.492 108.1 14.0306 107.492 13.6613C106.885 13.2921 106.29 13.1458 105.706 13.2226C105.122 13.2993 104.581 13.536 104.082 13.9327C103.583 14.3293 103.153 14.8236 102.793 15.4154C102.433 16.0073 102.193 16.6141 102.073 17.236C101.953 17.8578 101.994 18.4436 102.197 18.9932C102.399 19.5429 102.804 20.0024 103.412 20.3717Z" fill="black"/>
<path d="M117.991 25.3811L113.434 29.6364L112.347 28.4727L119.922 21.399L120.972 22.5233L119.788 23.6285L119.88 23.7271C120.431 23.5455 120.991 23.5264 121.563 23.67C122.137 23.8106 122.691 24.1669 123.225 24.7389C123.704 25.2517 124.018 25.7987 124.167 26.3798C124.319 26.9579 124.283 27.5517 124.059 28.1615C123.837 28.7681 123.405 29.3724 122.76 29.9741L117.947 34.4689L116.861 33.3051L121.594 28.8841C122.189 28.3284 122.509 27.741 122.552 27.1219C122.599 26.4997 122.37 25.919 121.867 25.3799C121.52 25.0084 121.129 24.7516 120.695 24.6095C120.264 24.4706 119.815 24.4617 119.35 24.5826C118.884 24.7036 118.431 24.9697 117.991 25.3811Z" fill="black"/>
<path d="M144.384 62.373L130.855 65.1844L130.525 63.5989L139.616 54.0192L139.588 53.8871L128.966 56.0945L128.625 54.4562L142.155 51.6448L142.484 53.2302L133.373 62.8419L133.4 62.974L144.049 60.7611L144.384 62.373Z" fill="black"/>
<path d="M130.548 75.3975C130.612 74.464 130.89 73.6602 131.383 72.9861C131.875 72.3164 132.534 71.8114 133.36 71.4711C134.185 71.1354 135.132 71.004 136.2 71.0771C137.277 71.1507 138.204 71.4102 138.98 71.8556C139.757 72.3055 140.343 72.8956 140.739 73.6261C141.135 74.361 141.302 75.1952 141.238 76.1286C141.174 77.0621 140.896 77.8636 140.404 78.5333C139.911 79.2075 139.25 79.7123 138.42 80.0478C137.59 80.3877 136.636 80.5209 135.559 80.4472C134.491 80.3741 133.571 80.1128 132.799 79.6633C132.027 79.2182 131.443 78.6282 131.047 77.8933C130.651 77.1628 130.484 76.3309 130.548 75.3975ZM131.975 75.4951C131.927 76.2041 132.069 76.7999 132.401 77.2825C132.733 77.7651 133.188 78.1366 133.765 78.3971C134.342 78.6575 134.977 78.8113 135.668 78.8586C136.359 78.9059 137.01 78.84 137.622 78.6609C138.234 78.4818 138.74 78.176 139.139 77.7434C139.538 77.3109 139.762 76.7401 139.811 76.031C139.859 75.322 139.715 74.726 139.378 74.2431C139.042 73.7602 138.582 73.3884 138.001 73.1277C137.419 72.8669 136.782 72.7129 136.091 72.6657C135.4 72.6184 134.751 72.6845 134.143 72.8638C133.536 73.0432 133.035 73.3493 132.64 73.7822C132.245 74.2151 132.024 74.786 131.975 75.4951Z" fill="black"/>
<path d="M128.831 87.3318L139.654 87.8271L139.093 89.4037L130.867 88.8573L130.83 88.959L137.566 93.7015L136.996 95.3036L128.813 94.7153L128.777 94.817L135.478 99.5759L134.918 101.153L126.21 94.7066L126.734 93.2317L134.995 93.7617L135.049 93.6091L128.307 88.8068L128.831 87.3318Z" fill="black"/>
</svg>
