<svg width="1920" height="264" viewBox="0 0 1920 264" fill="none" xmlns="http://www.w3.org/2000/svg">
<path d="M126.129 235.555C132.718 230.613 140.954 247.085 140.954 247.085C140.954 247.085 129.424 222.377 140.954 220.729C144.249 220.729 149.191 230.613 150.838 242.144C150.838 232.26 154.132 224.024 157.427 224.024C167.31 222.377 160.721 248.732 160.721 248.732L159.074 263.558H142.602C142.602 263.558 119.54 240.496 126.129 235.555Z" fill="#4D4D4D"/>
<path d="M1307.2 248.733H1308.84C1313.99 243.907 1317.46 237.556 1318.73 230.613C1322.02 224.024 1322.02 215.788 1317.08 207.552C1305.55 186.138 1279.19 197.668 1269.31 209.199C1266.49 212.577 1264.56 216.608 1263.69 220.924C1262.83 225.24 1263.06 229.704 1264.37 233.907C1266.22 238.889 1269.31 243.318 1273.34 246.776C1277.37 250.234 1282.22 252.608 1287.43 253.674C1294.41 254.568 1301.46 252.803 1307.2 248.733Z" fill="#DBDDDE"/>
<path d="M1292.37 215.788H1294.02V263.558H1292.37V215.788Z" fill="#333333"/>
<path d="M801.496 245.438C799.848 243.791 794.907 243.791 793.259 247.085C792.341 248.585 791.777 250.276 791.612 252.027C791.612 247.085 789.965 232.26 783.376 232.26C778.434 232.26 778.434 245.438 778.434 252.027C775.14 245.438 773.493 242.144 770.198 242.144C760.315 242.144 771.845 263.558 771.845 263.558H794.907L798.201 258.616C799.555 256.557 800.661 254.345 801.496 252.027C801.717 250.94 801.717 249.82 801.496 248.733C801.872 247.667 801.872 246.504 801.496 245.438Z" fill="#565656"/>
<path d="M386.392 233.907C389.687 233.907 392.981 242.143 394.629 252.027C394.629 243.791 397.923 237.202 399.57 235.554C409.454 235.554 404.512 250.38 404.512 250.38L401.218 263.557H388.04C388.04 263.557 376.509 235.554 386.392 233.907ZM1340.14 233.907C1343.44 233.907 1346.73 242.143 1348.38 252.027C1348.38 243.791 1351.67 237.202 1353.32 235.554C1363.2 235.554 1358.26 250.38 1358.26 250.38L1354.97 263.557H1341.79C1341.79 263.557 1330.26 235.554 1340.14 233.907ZM1098 227.318C1099.64 217.435 1093.06 172.96 1073.29 179.548C1068.35 182.843 1061.76 192.726 1060.11 197.668C1051.88 212.493 1048.58 242.143 1063.41 253.674C1071.64 258.616 1083.17 256.968 1089.76 250.38C1096.35 245.438 1098 237.202 1098 227.318Z" fill="#565656"/>
<path d="M1074.94 207.552H1076.58V263.558H1074.94V207.552Z" fill="#333333"/>
<path d="M1844.19 235.554C1844.19 228.965 1839.25 224.024 1839.25 219.082L1835.96 202.61C1832.66 199.315 1831.02 197.668 1826.08 197.668C1821.13 197.668 1819.49 199.315 1816.19 202.61L1814.54 219.082L1807.96 235.554C1804.66 247.085 1811.25 256.968 1822.78 256.968H1827.72C1830.41 257.013 1833.07 256.461 1835.51 255.352C1837.96 254.243 1840.12 252.605 1841.86 250.556C1843.59 248.506 1844.85 246.098 1845.54 243.503C1846.23 240.909 1846.33 238.194 1845.84 235.554H1844.19Z" fill="#DBDDDE"/>
<path d="M1826.07 219.082H1827.72V263.558H1826.07V219.082ZM292.5 88.9507L229.905 192.726H356.742L292.5 88.9507Z" fill="#4D4D4D"/>
<path d="M210.138 90.5981H294.147V192.727H210.138V90.5981Z" fill="#4D4D4D"/>
<path d="M210.138 88.9507L147.543 192.726H274.381L210.138 88.9507Z" fill="#565656"/>
<path d="M210.138 100.481L154.132 192.727H267.792L210.138 100.481ZM154.132 192.727H267.792V227.318H154.132V192.727Z" fill="#DBDDDE"/>
<path d="M236.494 192.727H350.153V227.318H236.494V192.727Z" fill="#DBDDDE"/>
<path d="M178.841 200.963H201.902V217.435H178.841V200.963ZM312.267 200.963H335.328V217.435H312.267V200.963Z" fill="#4C4C4C"/>
<path d="M154.132 227.318H350.153V263.558H154.132V227.318Z" fill="#DBDDDE"/>
<path d="M205.196 227.318H295.794V263.558H205.196V227.318Z" fill="#4D4D4D"/>
<path d="M257.908 166.371L221.669 227.318H295.794L257.908 166.371Z" fill="#565656"/>
<path d="M241.436 166.371H257.908V181.196H241.436V166.371Z" fill="#565656"/>
<path d="M241.435 166.371L205.196 227.318H279.322L241.435 166.371Z" fill="#4D4D4D"/>
<path d="M241.436 181.196L220.021 217.435H264.497L241.436 181.196Z" fill="#565656"/>
<path d="M164.016 235.26H198.608V256.674H164.016V235.26ZM308.972 235.26H341.917V256.674H308.972V235.26Z" fill="#4C4C4C"/>
<path d="M205.196 225.671H279.322V263.558H205.196V225.671Z" fill="#4D4D4D"/>
<path d="M241.435 227.319C243.082 227.081 244.76 227.202 246.355 227.674C247.95 228.146 249.424 228.958 250.676 230.053C251.928 231.149 252.928 232.502 253.608 234.02C254.287 235.538 254.63 237.186 254.613 238.849V263.558H229.905V238.849C229.905 235.791 231.12 232.858 233.282 230.696C235.444 228.533 238.377 227.319 241.435 227.319Z" fill="#565656"/>
<path d="M201.902 146.604H220.021V174.607H201.902V146.604Z" fill="#4C4C4C"/>
<path d="M1378.03 14.8252H1531.22V263.558H1378.03V14.8252Z" fill="#565656"/>
<path d="M1531.22 14.8252H1569.11V263.558H1531.22V14.8252Z" fill="#333333"/>
<path d="M1394.5 31.2974H1415.91V74.1255H1394.5V31.2974ZM1437.33 31.2974H1460.39V74.1255H1437.33V31.2974ZM1394.5 85.6561H1415.91V130.131H1394.5V85.6561ZM1437.33 85.6561H1460.39V130.131H1437.33V85.6561ZM1394.5 140.015H1415.91V182.843H1394.5V140.015ZM1437.33 140.015H1460.39V182.843H1437.33V140.015ZM1486.74 31.2974H1509.81V74.1255H1486.74V31.2974ZM1486.74 85.6561H1509.81V130.131H1486.74V85.6561ZM1486.74 140.015H1509.81V182.843H1486.74V140.015Z" fill="#DBDDDE"/>
<path d="M1419.21 237.202H1471.92V263.557H1419.21V237.202Z" fill="#333333"/>
<path d="M1453.8 209.199C1463.68 209.199 1471.92 219.083 1471.92 230.613V237.202H1422.5V209.199H1453.8Z" fill="white"/>
<path d="M1422.5 209.199C1417.11 209.615 1412.08 212.053 1408.41 216.025C1404.75 219.996 1402.72 225.208 1402.74 230.613V237.202H1443.92V230.613C1443.92 224.933 1441.66 219.487 1437.64 215.471C1433.63 211.455 1428.18 209.199 1422.5 209.199ZM1361.56 0H1531.22V14.8251H1361.56V0Z" fill="#DBDDDE"/>
<path d="M1531.22 0H1569.11V14.8251H1531.22V0Z" fill="#333333"/>
<path d="M1635 143.31H1732.18V263.558H1635V143.31Z" fill="#565656"/>
<path d="M1732.18 143.31H1776.66V263.558H1732.18V143.31Z" fill="#333333"/>
<path d="M1747.01 194.374H1799.72V263.557H1747.01V194.374Z" fill="#565656"/>
<path d="M1799.72 194.374H1819.49V263.557H1799.72V194.374Z" fill="#333333"/>
<path d="M1651.47 161.429H1717.36V189.432H1651.47V161.429Z" fill="#DBDDDE"/>
<path d="M1664.65 161.429H1704.18V189.432H1664.65V161.429ZM1770.07 214.14H1799.72V252.027H1770.07V214.14Z" fill="white"/>
<path d="M1799.72 214.141H1812.9V252.027H1799.72V214.141Z" fill="#DBDDDE"/>
<path d="M1651.47 225.671H1672.88V253.674H1651.47V225.671Z" fill="white"/>
<path d="M1651.47 253.674H1672.88V263.557H1651.47V253.674Z" fill="#DBDDDE"/>
<path d="M1686.06 219.082H1717.36V263.557H1686.06V219.082Z" fill="#333333"/>
<path d="M1692.65 225.671H1717.36V263.558H1692.65V225.671ZM1628.41 202.61H1710.77V209.199H1628.41V202.61ZM1628.41 140.015H1732.18V144.957H1628.41V140.015Z" fill="#DBDDDE"/>
<path d="M1732.18 140.015H1779.95V144.957H1732.18V140.015Z" fill="#565656"/>
<path d="M1709.12 202.61H1720.65V209.199H1709.12V202.61Z" fill="#333333"/>
<path d="M1748.66 186.137H1750.3V194.373H1748.66V186.137ZM1755.24 186.137H1756.89V194.373H1755.24V186.137ZM1760.19 186.137H1761.83V194.373H1760.19V186.137ZM1765.13 186.137H1766.77V194.373H1765.13V186.137ZM1770.07 186.137H1771.72V194.373H1770.07V186.137ZM1775.01 186.137H1776.66V194.373H1775.01V186.137ZM1779.95 186.137H1781.6V194.373H1779.95V186.137ZM1786.54 186.137H1788.19V194.373H1786.54V186.137ZM1791.48 186.137H1793.13V194.373H1791.48V186.137ZM1796.43 186.137H1798.07V194.373H1796.43V186.137Z" fill="#565656"/>
<path d="M1801.37 186.137H1803.01V194.373H1801.37V186.137ZM1807.96 186.137H1809.6V194.373H1807.96V186.137ZM1812.9 186.137H1814.54V194.373H1812.9V186.137Z" fill="#333333"/>
<path d="M1747.01 182.843H1799.72V186.138H1747.01V182.843Z" fill="#DBDDDE"/>
<path d="M1799.72 182.843H1819.49V186.138H1799.72V182.843Z" fill="#565656"/>
<path d="M1094.7 202.61H1256.13V256.969H1094.7V202.61Z" fill="#DBDDDE"/>
<path d="M1277.55 202.61H1094.7L1099.64 135.073H1272.6L1277.55 202.61Z" fill="#565656"/>
<path d="M1177.06 140.015L1216.6 186.138H1137.53L1177.06 140.015Z" fill="#DBDDDE"/>
<path d="M1221.54 189.432H1132.59L1177.06 135.073L1221.54 189.432ZM1144.12 184.49H1210.01L1177.06 143.309L1144.12 184.49Z" fill="white"/>
<path d="M1172.12 158.135H1183.65V174.607H1172.12V158.135ZM1121.06 210.846H1154V242.144H1121.06V210.846ZM1221.54 219.082H1247.9V242.144H1221.54V219.082Z" fill="white"/>
<path d="M1185.3 220.729H1203.42V256.969H1185.3V220.729Z" fill="#565656"/>
<path d="M1228.13 125.19H1247.9V161.429H1228.13V125.19Z" fill="#565656"/>
<path d="M1135.88 207.552H1139.18V245.438H1135.88V207.552Z" fill="#C0E7FA"/>
<path d="M1119.41 227.318V224.024H1157.3V227.318H1119.41Z" fill="#C0E7FA"/>
<path d="M1177.06 197.668H1259.43V204.257H1177.06V197.668Z" fill="white"/>
<path d="M1178.71 199.315V256.968H1173.77V199.315H1178.71ZM1213.3 197.668V256.968H1208.36V197.668H1213.3ZM1259.43 199.315V256.968H1254.48V199.315H1259.43Z" fill="white"/>
<path d="M1139.18 153.193L1178.71 199.315H1099.64L1139.18 153.193Z" fill="#DBDDDE"/>
<path d="M1183.65 202.61H1093.06L1139.18 148.251L1183.65 202.61ZM1106.23 197.668H1172.12L1139.18 158.134L1106.23 197.668Z" fill="white"/>
<path d="M1132.59 171.312H1145.77V191.079H1132.59V171.312Z" fill="white"/>
<path d="M1259.43 197.668H1277.55V256.968H1259.43V197.668Z" fill="#565656"/>
<path d="M1262.72 220.729H1272.6V240.496H1262.72V220.729Z" fill="#565656"/>
<path d="M1094.7 256.969H1277.55V263.558H1094.7V256.969Z" fill="#565656"/>
<path d="M796.554 118.601H966.219V263.558H796.554V118.601Z" fill="#565656"/>
<path d="M796.554 240.497H966.219V242.144H796.554V240.497ZM796.554 230.613H966.219V232.26H796.554V230.613ZM796.554 209.199H966.219V210.846H796.554V209.199ZM796.554 199.316H966.219V200.963H796.554V199.316ZM796.554 189.432H966.219V191.08H796.554V189.432ZM796.554 168.018H966.219V169.665H796.554V168.018ZM796.554 158.135H966.219V159.782H796.554V158.135ZM796.554 148.251H966.219V149.899H796.554V148.251ZM796.554 136.721H966.219V138.368H796.554V136.721ZM796.554 126.837H966.219V128.485H796.554V126.837ZM979.397 174.607H1017.28V263.558H979.397V174.607Z" fill="#333333"/>
<path d="M796.554 118.601H859.149V179.549H796.554V118.601Z" fill="#333333"/>
<path d="M783.376 169.665H859.149V181.196H783.376V169.665Z" fill="#DBDDDE"/>
<path d="M831.146 209.199H859.148V256.969H831.146V209.199Z" fill="#333333"/>
<path d="M865.738 214.14H878.915V225.671H865.738V214.14ZM887.152 214.14H900.329V225.671H887.152V214.14ZM925.038 141.662H936.569V154.84H925.038V141.662ZM946.452 141.662H959.63V154.84H946.452V141.662ZM824.557 207.551H859.149V214.14H824.557V207.551Z" fill="#DBDDDE"/>
<path d="M979.397 253.674H1017.28V255.321H979.397V253.674ZM979.397 243.791H1017.28V245.438H979.397V243.791ZM979.397 232.26H1017.28V233.907H979.397V232.26ZM979.397 222.377H1017.28V224.024H979.397V222.377ZM979.397 212.493H1017.28V214.141H979.397V212.493ZM979.397 191.079H1017.28V192.727H979.397V191.079ZM916.802 174.607H979.397V263.558H916.802V174.607Z" fill="#565656"/>
<path d="M916.802 253.674H979.397V255.321H916.802V253.674ZM916.802 243.791H979.397V245.438H916.802V243.791ZM916.802 232.26H979.397V233.907H916.802V232.26ZM916.802 222.377H979.397V224.024H916.802V222.377ZM916.802 212.493H979.397V214.14H916.802V212.493ZM916.802 191.079H979.397V192.726H916.802V191.079Z" fill="#333333"/>
<path d="M796.554 161.429H859.149V163.076H796.554V161.429ZM796.554 140.015H859.149V141.662H796.554V140.015ZM796.554 130.131H859.149V131.779H796.554V130.131Z" fill="#565656"/>
<path d="M910.213 172.959H984.338V184.49H910.213V172.959Z" fill="#DBDDDE"/>
<path d="M981.044 172.959H1027.17V184.49H981.044V172.959Z" fill="#333333"/>
<path d="M783.376 256.969H916.802V263.558H783.376V256.969Z" fill="#DBDDDE"/>
<path d="M602.18 0H673.011V39.5336H602.18V0Z" fill="#565656"/>
<path d="M465.459 0H602.18V39.5336H465.459V0Z" fill="#DBDDDE"/>
<path d="M450.634 26.356H607.122V263.558H450.634V26.356Z" fill="#565656"/>
<path d="M602.18 26.356H691.131V263.558H602.18V26.356ZM450.634 85.6564H602.18V92.2453H450.634V85.6564ZM450.634 140.015H602.18V146.604H450.634V140.015ZM450.634 196.021H602.18V202.61H450.634V196.021Z" fill="#333333"/>
<path d="M457.224 37.8862H595.591V84.0088H457.224V37.8862ZM457.224 95.5394H595.591V136.72H457.224V95.5394ZM457.224 149.898H595.591V191.079H457.224V149.898ZM458.871 205.904H593.944V263.557H458.871V205.904Z" fill="#DBDDDE"/>
<path d="M549.468 29.6499H554.41V84.0086H549.468V29.6499ZM496.757 29.6499H503.346V84.0086H496.757V29.6499ZM549.468 93.892H554.41V138.367H549.468V93.892ZM496.757 92.2448H503.346V138.367H496.757V92.2448ZM549.468 148.251H554.41V192.726H549.468V148.251ZM496.757 148.251H503.346V192.726H496.757V148.251ZM610.416 149.898H682.894V191.079H610.416V149.898ZM610.416 95.5393H682.894V136.72H610.416V95.5393ZM610.416 37.8861H684.542V84.0086H610.416V37.8861Z" fill="#565656"/>
<path d="M501.699 263.557V230.613H551.116V263.557" fill="#B1B1B1"/>
<path d="M554.41 263.558H547.821V232.26H503.346V263.558H498.404V227.318H554.41V263.558Z" fill="#565656"/>
<path d="M750.431 235.555C742.195 230.613 733.959 247.085 733.959 247.085C733.959 247.085 745.489 222.377 735.606 220.729C730.664 220.729 727.37 230.613 724.075 242.144C724.075 232.26 722.428 224.024 719.134 224.024C709.25 222.377 714.192 248.732 714.192 248.732L717.486 263.558H733.959C733.959 263.558 757.02 240.496 750.431 235.555Z" fill="#565656"/>
<path d="M1618.52 245.438C1616.88 243.791 1611.93 243.791 1610.29 247.085C1609.37 248.585 1608.81 250.276 1608.64 252.027C1608.64 247.085 1606.99 232.26 1600.4 232.26C1595.46 232.26 1595.46 245.438 1595.46 252.027C1593.82 245.438 1590.52 242.144 1587.23 242.144C1577.34 242.144 1588.87 263.558 1588.87 263.558H1611.93L1615.23 258.616C1616.58 256.557 1617.69 254.345 1618.52 252.027C1618.75 250.94 1618.75 249.82 1618.52 248.733C1618.9 247.667 1618.9 246.504 1618.52 245.438Z" fill="#565656"/>
<path d="M1865.61 238.849H1867.26C1874.03 241.632 1881.37 242.761 1888.67 242.143C1898.55 242.143 1906.79 238.849 1913.38 233.907C1931.5 215.788 1908.44 197.668 1891.96 194.374C1882.08 191.079 1870.55 192.726 1862.31 197.668C1854.08 202.61 1849.14 212.493 1852.43 222.377C1853.28 225.925 1854.9 229.242 1857.17 232.09C1859.45 234.938 1862.33 237.246 1865.61 238.849Z" fill="#333333"/>
<path d="M1870.55 200.962L1872.2 202.609C1877.44 204.627 1883.13 205.196 1888.67 204.257C1895.26 204.257 1901.85 202.609 1905.14 197.668C1918.32 182.843 1901.85 168.017 1890.32 164.723C1886.75 163.476 1882.93 163.124 1879.2 163.699C1875.47 164.273 1871.93 165.756 1868.9 168.017C1865.92 170.299 1863.58 173.328 1862.14 176.797C1860.69 180.267 1860.18 184.056 1860.67 187.784C1861.36 190.524 1862.59 193.1 1864.29 195.361C1865.99 197.623 1868.11 199.527 1870.55 200.962Z" fill="#333333"/>
<path d="M1883.73 202.61H1885.38V263.558H1883.73V202.61Z" fill="#333333"/>
<path d="M73.4176 225.671C71.7704 215.787 65.1814 207.551 63.5342 197.668C60.2397 189.432 61.8869 179.548 58.5925 171.312C56.67 167.5 53.7271 164.297 50.0917 162.059C46.4564 159.821 42.2711 158.636 38.002 158.636C33.733 158.636 29.5477 159.821 25.9123 162.059C22.277 164.297 19.3341 167.5 17.4116 171.312C12.4699 179.548 14.1171 189.432 12.4699 197.668L0.939271 225.671C-0.629952 232.586 -0.226816 239.803 2.10282 246.501C4.43246 253.199 8.59507 259.108 14.1171 263.557H60.2397C65.7618 259.108 69.9244 253.199 72.254 246.501C74.5837 239.803 74.9868 232.586 73.4176 225.671Z" fill="#565656"/>
<path d="M38.8257 186.137H40.4729V263.557H38.8257V186.137Z" fill="#333333"/>
<path d="M463.812 245.438C462.165 243.791 457.223 243.791 455.576 247.085C454.657 248.585 454.094 250.275 453.929 252.027C453.929 247.085 452.282 232.26 445.693 232.26C440.751 232.26 440.751 245.438 440.751 252.027C437.457 245.438 435.809 242.143 432.515 242.143C422.632 242.143 434.162 263.557 434.162 263.557H457.223L460.518 258.616C461.872 256.557 462.977 254.345 463.812 252.027C464.034 250.94 464.034 249.819 463.812 248.732C464.189 247.666 464.189 246.504 463.812 245.438ZM103.068 235.554C99.7736 230.613 94.8319 232.26 91.5374 235.554C89.6424 238.527 88.5107 241.922 88.2429 245.438C88.2429 235.554 88.2429 212.493 78.3595 212.493C70.1233 212.493 70.1233 235.554 70.1233 245.438C68.4761 233.907 63.5344 228.966 58.5927 228.966C45.4148 230.613 61.8872 263.557 61.8872 263.557H94.8319L99.7736 255.321C101.176 252.136 102.279 248.828 103.068 245.438C103.512 243.264 103.512 241.023 103.068 238.849C103.252 237.758 103.252 236.645 103.068 235.554Z" fill="#B1B1B1"/>
</svg>
