<svg width="27" height="17" viewBox="0 0 27 17" fill="none" xmlns="http://www.w3.org/2000/svg">
<path fill-rule="evenodd" clip-rule="evenodd" d="M1.65787 0.236084C0.840356 0.236084 0.177612 0.89678 0.177612 1.71178C0.177612 2.52678 0.840356 3.18747 1.65787 3.18747H25.3421C26.1596 3.18747 26.8223 2.52678 26.8223 1.71178C26.8223 0.89678 26.1596 0.236084 25.3421 0.236084H1.65787ZM0.177612 8.44096C0.177612 7.62595 0.840356 6.96528 1.65787 6.96528H25.3421C26.1596 6.96528 26.8223 7.62595 26.8223 8.44096C26.8223 9.25596 26.1596 9.9167 25.3421 9.9167H1.65787C0.840356 9.9167 0.177612 9.25596 0.177612 8.44096ZM0.177633 15.1702C0.177633 14.3551 0.840342 13.6944 1.65787 13.6944H25.3421C26.1596 13.6944 26.8223 14.3551 26.8223 15.1702C26.8223 15.9852 26.1596 16.6459 25.3421 16.6459H1.65787C0.840342 16.6459 0.177633 15.9852 0.177633 15.1702Z" fill="currentcolor"/>
</svg>
