<svg width="83" height="82" viewBox="0 0 83 82" fill="none" xmlns="http://www.w3.org/2000/svg">
<rect x="1" y="0.5" width="81" height="81" rx="40.5" stroke="url(#paint0_linear_58_4168)"/>
<rect x="1" y="0.5" width="81" height="81" rx="40.5" stroke="url(#paint1_linear_58_4168)"/>
<rect x="11" y="10.5" width="61" height="61" rx="30.5" stroke="url(#paint2_linear_58_4168)"/>
<rect x="11" y="10.5" width="61" height="61" rx="30.5" stroke="url(#paint3_linear_58_4168)"/>
<path fillRule="evenodd" clipRule="evenodd" d="M26.2002 28.6749C26.2002 27.9707 26.771 27.3999 27.4752 27.3999H45.3252C46.0294 27.3999 46.6002 27.9707 46.6002 28.6749C46.6002 29.3791 46.0294 29.9499 45.3252 29.9499H44.9002V53.3249C44.9002 54.0291 44.3294 54.5999 43.6252 54.5999H41.0752C40.371 54.5999 39.8002 54.0291 39.8002 53.3249V49.0749C39.8002 48.3707 39.2294 47.7999 38.5252 47.7999H34.2752C33.571 47.7999 33.0002 48.3707 33.0002 49.0749V53.3249C33.0002 54.0291 32.4294 54.5999 31.7252 54.5999H27.4752C26.771 54.5999 26.2002 54.0291 26.2002 53.3249C26.2002 52.6207 26.771 52.0499 27.4752 52.0499H27.9002V29.9499H27.4752C26.771 29.9499 26.2002 29.3791 26.2002 28.6749ZM31.3002 33.3499C31.3002 32.8805 31.6808 32.4999 32.1502 32.4999H33.8502C34.3196 32.4999 34.7002 32.8805 34.7002 33.3499V35.0499C34.7002 35.5193 34.3196 35.8999 33.8502 35.8999H32.1502C31.6808 35.8999 31.3002 35.5193 31.3002 35.0499V33.3499ZM32.1502 39.2999C31.6808 39.2999 31.3002 39.6805 31.3002 40.1499V41.8499C31.3002 42.3193 31.6808 42.6999 32.1502 42.6999H33.8502C34.3196 42.6999 34.7002 42.3193 34.7002 41.8499V40.1499C34.7002 39.6805 34.3196 39.2999 33.8502 39.2999H32.1502ZM38.1002 33.3499C38.1002 32.8805 38.4808 32.4999 38.9502 32.4999H40.6502C41.1196 32.4999 41.5002 32.8805 41.5002 33.3499V35.0499C41.5002 35.5193 41.1196 35.8999 40.6502 35.8999H38.9502C38.4808 35.8999 38.1002 35.5193 38.1002 35.0499V33.3499ZM38.9502 39.2999C38.4808 39.2999 38.1002 39.6805 38.1002 40.1499V41.8499C38.1002 42.3193 38.4808 42.6999 38.9502 42.6999H40.6502C41.1196 42.6999 41.5002 42.3193 41.5002 41.8499V40.1499C41.5002 39.6805 41.1196 39.2999 40.6502 39.2999H38.9502Z" fill="#426585"/>
<path fillRule="evenodd" clipRule="evenodd" d="M48.7252 34.1999C48.021 34.1999 47.4502 34.7707 47.4502 35.4749V52.8999C47.4502 53.8388 48.2113 54.5999 49.1502 54.5999H55.5252C56.2294 54.5999 56.8002 54.0291 56.8002 53.3249C56.8002 52.6207 56.2294 52.0499 55.5252 52.0499H55.1002V36.7499H55.5252C56.2294 36.7499 56.8002 36.1791 56.8002 35.4749C56.8002 34.7707 56.2294 34.1999 55.5252 34.1999H48.7252ZM49.5752 40.1499C49.5752 39.6805 49.9558 39.2999 50.4252 39.2999H52.1252C52.5946 39.2999 52.9752 39.6805 52.9752 40.1499V41.8499C52.9752 42.3193 52.5946 42.6999 52.1252 42.6999H50.4252C49.9558 42.6999 49.5752 42.3193 49.5752 41.8499V40.1499ZM50.4252 46.0999C49.9558 46.0999 49.5752 46.4805 49.5752 46.9499V48.6499C49.5752 49.1193 49.9558 49.4999 50.4252 49.4999H52.1252C52.5946 49.4999 52.9752 49.1193 52.9752 48.6499V46.9499C52.9752 46.4805 52.5946 46.0999 52.1252 46.0999H50.4252Z" fill="#426585"/>
<defs>
<linearGradient id="paint0_linear_58_4168" x1="7.25" y1="86.5" x2="86.25" y2="-5.5" gradientUnits="userSpaceOnUse">
<stop stop-color="#426585"/>
<stop offset="0.323723" stop-color="#A685FA" stop-opacity="0"/>
</linearGradient>
<linearGradient id="paint1_linear_58_4168" x1="82.25" y1="-10.5" x2="7.25" y2="82" gradientUnits="userSpaceOnUse">
<stop stop-color="#426585"/>
<stop offset="0.576615" stop-color="#A685FA" stop-opacity="0"/>
</linearGradient>
<linearGradient id="paint2_linear_58_4168" x1="3.75" y1="13.5" x2="72.25" y2="72" gradientUnits="userSpaceOnUse">
<stop stop-color="#426585"/>
<stop offset="0.323723" stop-color="#A685FA" stop-opacity="0"/>
</linearGradient>
<linearGradient id="paint3_linear_58_4168" x1="84.75" y1="86" x2="12.75" y2="35" gradientUnits="userSpaceOnUse">
<stop stop-color="#426585"/>
<stop offset="0.576615" stop-color="#A685FA" stop-opacity="0"/>
</linearGradient>
</defs>
</svg>
