<svg width="54" height="44" viewBox="0 0 54 44" fill="none" xmlns="http://www.w3.org/2000/svg">
<g clip-path="url(#clip0_179_22)">
<path d="M43.5 22C43.5 10.1259 33.8741 0.5 22 0.5C10.1259 0.5 0.5 10.1259 0.5 22C0.5 33.8741 10.1259 43.5 22 43.5C33.8741 43.5 43.5 33.8741 43.5 22Z" fill="#1A1A1A"/>
<path d="M43.5 22C43.5 10.1259 33.8741 0.5 22 0.5C10.1259 0.5 0.5 10.1259 0.5 22C0.5 33.8741 10.1259 43.5 22 43.5C33.8741 43.5 43.5 33.8741 43.5 22Z" stroke="#262626"/>
<path d="M21.1588 11.3102C21.5524 10.6974 22.448 10.6974 22.8416 11.3102L25.8806 16.0416C26.016 16.2524 26.2257 16.4048 26.468 16.4684L31.907 17.8966C32.6114 18.0815 32.8882 18.9333 32.427 19.497L28.8663 23.8494C28.7076 24.0433 28.6275 24.2898 28.6419 24.5399L28.9643 30.1541C29.0061 30.8811 28.2815 31.4076 27.603 31.1432L22.3632 29.1016C22.1298 29.0107 21.8706 29.0107 21.6372 29.1016L16.3975 31.1432C15.7189 31.4076 14.9943 30.8811 15.0361 30.1541L15.3585 24.5399C15.3729 24.2898 15.2928 24.0433 15.1341 23.8494L11.5734 19.497C11.1122 18.9333 11.389 18.0815 12.0934 17.8966L17.5324 16.4684C17.7747 16.4048 17.9844 16.2524 18.1198 16.0416L21.1588 11.3102Z" fill="#FFE600"/>
</g>
<defs>
<clipPath id="clip0_179_22">
<rect width="44" height="44" fill="white"/>
</clipPath>
</defs>
</svg>
