<svg width="25" height="17" viewBox="0 0 30 28" fill="none" xmlns="http://www.w3.org/2000/svg">
<path fill-rule="evenodd" clip-rule="evenodd" d="M1.70616 0.886335L29.2403 13.1578C29.4098 13.2151 29.5583 13.3222 29.6661 13.4651C29.774 13.6081 29.8362 13.7801 29.8447 13.9588C29.8531 14.1374 29.8074 14.3143 29.7135 14.4663C29.6196 14.6182 29.4819 14.7382 29.3185 14.8103L1.7475 27.1513C1.58915 27.2225 1.41324 27.2456 1.24162 27.2177C1.07001 27.1898 0.910233 27.1121 0.782137 26.9943C0.65404 26.8765 0.563262 26.7238 0.52107 26.5551C0.478879 26.3863 0.487133 26.2091 0.544807 26.0453L3.80782 16.6453L18.5927 14.0409L3.83552 11.3979L0.509821 1.98922C0.45226 1.82566 0.443798 1.64895 0.48548 1.4809C0.527161 1.31284 0.617162 1.1608 0.744378 1.04352C0.871594 0.926241 1.03046 0.848862 1.20137 0.82093C1.37228 0.792998 1.54776 0.815735 1.70616 0.886335Z" fill="currentColor"/>
</svg>
